<svg width="21" height="21" viewBox="0 0 21 21" fill="none" xmlns="http://www.w3.org/2000/svg">
<g id="person_24px">
<path id="icon/social/person_24px" fill-rule="evenodd" clip-rule="evenodd" d="M10.4097 3.69888C8.57098 3.69888 7.0817 5.23952 7.0817 7.14164C7.0817 9.04377 8.57098 10.5844 10.4097 10.5844C12.2484 10.5844 13.7377 9.04377 13.7377 7.14164C13.7377 5.23952 12.2484 3.69888 10.4097 3.69888ZM12.0736 7.14174C12.0736 6.19498 11.3248 5.42036 10.4096 5.42036C9.49439 5.42036 8.74559 6.19498 8.74559 7.14174C8.74559 8.08849 9.49439 8.86311 10.4096 8.86311C11.3248 8.86311 12.0736 8.08849 12.0736 7.14174ZM15.4016 15.7485C15.2352 15.1374 12.656 14.0271 10.4096 14.0271C8.17153 14.0271 5.60897 15.1288 5.41761 15.7485H15.4016ZM3.75371 15.7485C3.75371 13.4591 8.18827 12.3058 10.4097 12.3058C12.6311 12.3058 17.0657 13.4591 17.0657 15.7485V17.4699H3.75371V15.7485Z" fill="black" fill-opacity="0.44"/>
</g>
</svg>
